<svg width="93" height="93" viewBox="0 0 93 93" fill="none" xmlns="http://www.w3.org/2000/svg">
<g filter="url(#filter0_d_57_7)">
<circle cx="46.5" cy="42.5" r="42" stroke="white"/>
<path d="M65.5231 39.9084H53.4648C54.011 38.6542 54.243 37.2387 54.184 35.8432C55.6685 35.9249 57.0297 34.8319 57.0297 33.2683C57.0297 32.7285 56.8623 32.2272 56.5773 31.8128C57.0429 31.5039 57.3508 30.9757 57.3508 30.3762V29.1438C57.3508 28.1934 56.5777 27.4204 55.6274 27.4204H54.1839V23.0673C54.184 20.2732 51.9108 18 49.1167 18H41.9846C39.1904 18 36.9173 20.2732 36.9173 23.0673V27.4203H35.4737C34.5234 27.4203 33.7503 28.1934 33.7503 29.1437V30.3761C33.7503 30.9756 34.0583 31.5038 34.5238 31.8127C34.2388 32.2271 34.0715 32.7284 34.0715 33.2682C34.0715 34.7694 35.4013 35.9911 36.9172 35.8431C36.785 37.1629 37.1349 38.7458 37.6398 39.9083H25.5781C24.1565 39.9083 23 41.0648 23 42.4865V49.3883C23 50.81 24.1565 51.9665 25.5781 51.9665H28.3525C28.2883 52.2212 28.2398 52.48 28.2076 52.7415C27.8711 52.7308 27.5344 52.8207 27.2411 53.0094C26.7686 53.3135 26.4866 53.8264 26.4866 54.3815V56.5328H25.5542C24.92 56.5328 24.3613 56.983 24.2257 57.6032C23.9932 58.6665 23.8863 59.7559 23.9081 60.8411C23.9261 61.7407 24.0329 62.6431 24.2256 63.5234C24.3613 64.1437 24.9201 64.5938 25.5541 64.5938H26.4866V65.2969C26.4866 65.6852 26.8014 66 27.1897 66C27.578 66 27.8928 65.6852 27.8928 65.2969V64.5938H28.2923C29.5832 64.5938 30.6335 63.5435 30.6335 62.2525V58.8741C30.6335 57.5831 29.5832 56.5328 28.2923 56.5328H27.8929V54.3816C27.9023 54.1961 28.0721 54.0892 28.2749 54.1732L35.6676 57.5361V65.2969C35.6676 65.6852 35.9824 66 36.3707 66C36.759 66 37.0738 65.6852 37.0738 65.2969V57.5357L44.8476 53.9993V65.2969C44.8476 65.6852 45.1624 66 45.5507 66C45.939 66 46.2538 65.6852 46.2538 65.2969V53.9992C46.4266 54.0846 53.8423 57.446 54.028 57.5359V65.2969C54.028 65.6852 54.3428 66 54.7311 66C55.1194 66 55.4342 65.6852 55.4342 65.2969V57.5359L62.8268 54.1731C63.0334 54.0898 63.199 54.196 63.2085 54.3816V56.5329H62.8092C61.5182 56.5329 60.4679 57.5832 60.4679 58.8742V62.2526C60.4679 63.5436 61.5182 64.5938 62.8092 64.5938H63.2086V65.297C63.2086 65.6853 63.5234 66.0001 63.9118 66.0001C64.3001 66.0001 64.6149 65.6853 64.6149 65.297V64.5938H65.5473C66.1813 64.5938 66.7401 64.1437 66.8758 63.5235C67.0685 62.6431 67.1753 61.7407 67.1934 60.8412C67.2151 59.756 67.1083 58.6666 66.8758 57.6033C66.7401 56.9831 66.1814 56.5329 65.5472 56.5329H64.6149V54.3816C64.6149 53.8265 64.3328 53.3136 63.8604 53.0095C63.567 52.8208 63.2304 52.7308 62.8938 52.7415C62.8617 52.48 62.8131 52.2213 62.749 51.9666H65.5233C66.9449 51.9666 68.1014 50.8101 68.1014 49.3884V42.4866C68.1013 41.0649 66.9448 39.9084 65.5231 39.9084ZM26.8701 50.5603H25.5781C24.9319 50.5603 24.4062 50.0347 24.4062 49.3884V42.4866C24.4062 41.8403 24.9319 41.3147 25.5781 41.3147H26.8701V50.5603ZM28.2922 57.9392C28.8077 57.9392 29.2272 58.3586 29.2272 58.8742V62.2526C29.2272 62.7682 28.8077 63.1876 28.2922 63.1876H25.5916C25.4233 62.4078 25.33 61.6091 25.314 60.813C25.2946 59.8501 25.3881 58.8834 25.5917 57.9393H28.2922V57.9392ZM65.5095 57.9392C65.7132 58.8833 65.8065 59.8501 65.7872 60.813C65.7713 61.609 65.6778 62.4078 65.5096 63.1875H62.8091C62.2935 63.1875 61.8741 62.7681 61.8741 62.2525V58.8741C61.8741 58.3585 62.2935 57.9391 62.8091 57.9391H65.5095V57.9392ZM60.0125 41.3147V48.1724C59.3899 47.7757 58.6992 47.4863 57.9716 47.3264L51.0645 45.8085C50.5314 45.6917 50.1445 45.2106 50.1445 44.6644V43.7633C50.6851 43.4222 51.1929 43.0204 51.656 42.5573C52.0416 42.1717 52.3846 41.7551 52.686 41.3148H60.0125V41.3147ZM54.1841 34.4369V32.0996C54.9063 31.9894 55.6235 32.5112 55.6235 33.2682C55.6235 34.0115 54.9132 34.5521 54.1841 34.4369ZM38.3235 23.0673C38.3235 21.0486 39.9658 19.4062 41.9846 19.4062H49.1167C51.1354 19.4062 52.7777 21.0486 52.7777 23.0673V27.4203H38.3235V23.0673ZM36.9172 34.4369C36.1784 34.5263 35.4778 34.0436 35.4778 33.2683C35.4778 32.5145 36.1984 31.9918 36.9172 32.0997V34.4369ZM35.4737 30.6934C35.2988 30.6934 35.1566 30.5511 35.1566 30.3762V29.1438C35.1566 28.9688 35.2989 28.8266 35.4737 28.8266H55.6275C55.8025 28.8266 55.9447 28.9689 55.9447 29.1438V30.3762C55.9447 30.5512 55.8024 30.6934 55.6275 30.6934H43.8339C43.4456 30.6934 43.1308 31.0082 43.1308 31.3965C43.1308 31.7848 43.4456 32.0996 43.8339 32.0996H52.7778V36.4528C52.7788 38.3913 52.0168 40.2076 50.6616 41.5628C50.1933 42.0311 49.6711 42.4253 49.1104 42.7437C48.0223 43.3616 46.8415 43.68 45.5506 43.68C41.5656 43.68 38.3234 40.4378 38.3234 36.4528V32.0996H40.5526C40.9409 32.0996 41.2558 31.7848 41.2558 31.3965C41.2558 31.0082 40.9409 30.6934 40.5526 30.6934H35.4737ZM49.1577 46.0639L45.5506 49.6709L41.9436 46.0639C42.2439 45.6041 42.3883 45.0412 42.3631 44.4762C43.3498 44.8696 44.4253 45.0863 45.5506 45.0863C46.6602 45.0863 47.737 44.8763 48.7381 44.4789C48.69 45.0247 48.8702 45.6224 49.1577 46.0639ZM31.0888 41.3147H38.4201C39.0889 42.2925 39.9535 43.1262 40.9568 43.7593V44.6644C40.9568 45.2106 40.5699 45.6917 40.0362 45.8086L33.1296 47.3264C32.402 47.4863 31.7113 47.7757 31.0887 48.1724V41.3147H31.0888ZM28.8906 50.5603H28.2763V41.3147H29.6826V49.3917C29.374 49.7508 29.1097 50.1435 28.8906 50.5603ZM36.3703 56.3108L29.5759 53.2201C29.7052 51.0471 31.2861 49.1715 33.4317 48.6998L37.6804 47.7661L43.1437 53.2294L36.3703 56.3108ZM54.731 56.3108L47.9577 53.2295L49.2861 51.901C49.5607 51.6264 49.5607 51.1812 49.2861 50.9067C49.0115 50.6321 48.5663 50.6321 48.2918 50.9067L46.5892 52.6093C45.9246 52.3302 45.1766 52.3302 44.512 52.6093L39.3106 47.408L40.3376 47.1823C40.5294 47.1403 40.7114 47.075 40.8838 46.993L44.9206 51.0299C45.0888 51.1982 45.3126 51.2909 45.5505 51.2909C45.7885 51.2909 46.0123 51.1982 46.1803 51.03L50.2172 46.993C50.3894 47.075 50.5713 47.1402 50.763 47.1822L51.7904 47.408L50.6341 48.5644C50.3595 48.839 50.3595 49.2842 50.6341 49.5587C50.9087 49.8333 51.3539 49.8333 51.6284 49.5587L53.4208 47.7663L57.6695 48.6999C59.8151 49.1716 61.396 51.0472 61.5253 53.2202L54.731 56.3108ZM62.8249 50.5603H62.2107C61.9919 50.1439 61.7269 49.7505 61.4188 49.3917V41.3147H62.825V50.5603H62.8249ZM66.695 49.3884C66.695 50.0347 66.1693 50.5603 65.5231 50.5603H64.2312V41.3147H65.5231C66.1693 41.3147 66.695 41.8403 66.695 42.4866V49.3884ZM49.3768 35.9352C49.7651 35.9352 50.0799 35.6204 50.0799 35.2321V33.7016C50.0799 33.3133 49.7651 32.9985 49.3768 32.9985C48.9884 32.9985 48.6736 33.3133 48.6736 33.7016V35.2321C48.6736 35.6204 48.9884 35.9352 49.3768 35.9352ZM41.0214 33.7016V35.2321C41.0214 35.6204 41.3362 35.9352 41.7245 35.9352C42.1128 35.9352 42.4276 35.6204 42.4276 35.2321V33.7016C42.4276 33.3133 42.1128 32.9985 41.7245 32.9985C41.3362 32.9985 41.0214 33.3133 41.0214 33.7016ZM43.682 40.3318C44.072 40.5457 44.7057 40.8025 45.5099 40.8109C46.3209 40.8194 47.0187 40.5515 47.4192 40.3318C47.7597 40.1451 47.8843 39.7177 47.6975 39.3772C47.5108 39.0367 47.0833 38.9122 46.7428 39.0988C46.4829 39.2414 46.0597 39.4105 45.5247 39.4047C45.0117 39.3993 44.6072 39.2354 44.3583 39.0988C44.0177 38.912 43.5904 39.0367 43.4037 39.3772C43.2169 39.7177 43.3416 40.1451 43.682 40.3318Z" fill="white"/>
</g>
<defs>
<filter id="filter0_d_57_7" x="0" y="0" width="93" height="93" filterUnits="userSpaceOnUse" color-interpolation-filters="sRGB">
<feFlood flood-opacity="0" result="BackgroundImageFix"/>
<feColorMatrix in="SourceAlpha" type="matrix" values="0 0 0 0 0 0 0 0 0 0 0 0 0 0 0 0 0 0 127 0" result="hardAlpha"/>
<feOffset dy="4"/>
<feGaussianBlur stdDeviation="2"/>
<feComposite in2="hardAlpha" operator="out"/>
<feColorMatrix type="matrix" values="0 0 0 0 0 0 0 0 0 0 0 0 0 0 0 0 0 0 0.25 0"/>
<feBlend mode="normal" in2="BackgroundImageFix" result="effect1_dropShadow_57_7"/>
<feBlend mode="normal" in="SourceGraphic" in2="effect1_dropShadow_57_7" result="shape"/>
</filter>
</defs>
</svg>
